<?xml version="1.0" encoding="UTF-8"?>
<svg id="Layer_2" data-name="Layer 2" xmlns="http://www.w3.org/2000/svg" viewBox="0 0 154 35.01">
  <defs>
    <style>
      .cls-1 {
        fill: #e05a2b;
      }
      .cls-2 {
        fill: #f0f0f0;
      }
    </style>
  </defs>
  <g id="Layer_1-2" data-name="Layer 1">
    <g>
      <g>
        <path class="cls-2" d="M0,34.84v-6h8v-12H1v-6h14v18h6v6H0ZM11.16,6.79c-1.19,0-2.14-.3-2.85-.91-.71-.61-1.07-1.44-1.07-2.48s.35-1.87,1.07-2.48c.71-.61,1.66-.91,2.85-.91s2.14.3,2.85.91c.71.61,1.07,1.44,1.07,2.48s-.36,1.87-1.07,2.48c-.71.61-1.66.91-2.85.91Z"/>
        <path class="cls-2" d="M27,34.84V10.84h7v4.49c.34-1.52,1.08-2.72,2.22-3.6,1.14-.88,2.57-1.32,4.29-1.32,2.34,0,4.17.81,5.5,2.42,1.33,1.61,1.99,3.83,1.99,6.64v2.37h-7v-1.96c0-1.25-.35-2.21-1.05-2.89-.7-.68-1.68-1.02-2.95-1.02s-2.26.38-2.95,1.15c-.7.77-1.05,1.86-1.05,3.29v14.44h-6Z"/>
        <path class="cls-2" d="M62.5,35.01c-2.13,0-3.98-.4-5.56-1.2-1.57-.8-2.79-1.92-3.65-3.37-.86-1.44-1.29-3.13-1.29-5.05v-5.69c0-1.92.43-3.61,1.29-5.05.86-1.44,2.08-2.57,3.65-3.37,1.57-.8,3.43-1.2,5.56-1.2s4.02.4,5.58,1.2c1.56.8,2.77,1.92,3.63,3.37.86,1.44,1.29,3.13,1.29,5.05v5.69c0,1.92-.43,3.61-1.29,5.05-.86,1.44-2.07,2.57-3.63,3.37-1.56.8-3.42,1.2-5.58,1.2ZM63,29.43c1.3,0,2.3-.35,2.98-1.04.68-.7,1.02-1.68,1.02-2.96v-5.78c0-1.3-.34-2.3-1.02-2.98-.68-.68-1.67-1.02-2.98-1.02s-2.26.34-2.96,1.02c-.7.68-1.04,1.67-1.04,2.98v5.78c0,1.27.35,2.26,1.04,2.96.7.7,1.68,1.04,2.96,1.04Z"/>
        <path class="cls-2" d="M78,34.84V10.84h7v4.36c.34-1.45,1.08-2.62,2.22-3.49,1.13-.87,2.52-1.31,4.16-1.31,2.3,0,4.14.81,5.54,2.44,1.39,1.63,2.09,3.8,2.09,6.5v15.49h-7v-14.8c0-1.25-.31-2.21-.93-2.89-.62-.68-1.48-1.02-2.57-1.02s-1.96.34-2.57,1.02c-.62.68-.93,1.65-.93,2.89v14.8h-7Z"/>
      </g>
      <path class="cls-1" d="M121.1,34.84c-2.63,0-4.7-.62-6.19-1.86-1.5-1.24-2.27-2.95-2.33-5.14h3.45c.06,1.24.54,2.22,1.44,2.93.9.71,2.12,1.07,3.67,1.07h2.1c1.53,0,2.72-.35,3.56-1.04.84-.69,1.26-1.66,1.26-2.89,0-1.12-.27-2.02-.82-2.72-.55-.69-1.35-1.1-2.41-1.21l-6.36-.88c-1.77-.27-3.14-.95-4.11-2.05-.97-1.1-1.46-2.58-1.46-4.44,0-2.09.72-3.74,2.16-4.95,1.44-1.21,3.42-1.81,5.92-1.81h2.13c2.24,0,4.06.55,5.47,1.66s2.18,2.55,2.32,4.34h-3.52c-.11-.85-.54-1.56-1.29-2.14-.75-.58-1.73-.86-2.94-.86h-2.2c-1.44,0-2.57.34-3.39,1.01-.82.68-1.23,1.58-1.23,2.73,0,1.88.98,2.95,2.95,3.21l5.98.84c1.99.26,3.52,1.01,4.58,2.24,1.06,1.23,1.58,2.86,1.58,4.88,0,2.23-.73,3.97-2.18,5.21-1.45,1.25-3.47,1.87-6.05,1.87h-2.08Z"/>
      <path class="cls-1" d="M137,34.84V2.84h3v12h.04c.23-1.57.89-2.79,2-3.65,1.11-.86,2.54-1.29,4.3-1.29,2.33,0,4.18.77,5.57,2.29,1.39,1.53,2.09,3.6,2.09,6.21v16.44h-3v-15.49c0-1.91-.48-3.39-1.45-4.42-.97-1.03-2.29-1.54-3.96-1.54s-3.1.54-4.09,1.61c-1,1.07-1.5,2.57-1.5,4.48v15.36h-3Z"/>
      <rect class="cls-1" x="104" y="29.84" width="5" height="5"/>
    </g>
  </g>
</svg>
